<?xml version="1.0" encoding="UTF-8"?>
<svg width="120" height="32" viewBox="0 0 120 32" fill="none" xmlns="http://www.w3.org/2000/svg">
  <path d="M20.5 8.5C20.5 12.0899 17.5899 15 14 15C10.4101 15 7.5 12.0899 7.5 8.5C7.5 4.91015 10.4101 2 14 2C17.5899 2 20.5 4.91015 20.5 8.5Z" fill="#FF4D4D"/>
  <path d="M14 15V30" stroke="#FF4D4D" stroke-width="3"/>
  <path d="M7.5 8.5H20.5" stroke="#FF4D4D" stroke-width="3"/>
  <path d="M25 8.5H32" stroke="#FF4D4D" stroke-width="3"/>
  <path d="M25 15H32" stroke="#FF4D4D" stroke-width="3"/>
  <path d="M25 21.5H32" stroke="#FF4D4D" stroke-width="3"/>
  <path d="M25 28H32" stroke="#FF4D4D" stroke-width="3"/>
  <path d="M35 8.5H42" stroke="#FF4D4D" stroke-width="3"/>
  <path d="M35 15H42" stroke="#FF4D4D" stroke-width="3"/>
  <path d="M35 21.5H42" stroke="#FF4D4D" stroke-width="3"/>
  <path d="M35 28H42" stroke="#FF4D4D" stroke-width="3"/>
  <path d="M45 8.5H52" stroke="#FF4D4D" stroke-width="3"/>
  <path d="M45 15H52" stroke="#FF4D4D" stroke-width="3"/>
  <path d="M45 21.5H52" stroke="#FF4D4D" stroke-width="3"/>
  <path d="M45 28H52" stroke="#FF4D4D" stroke-width="3"/>
  <path d="M55 8.5H62" stroke="#FF4D4D" stroke-width="3"/>
  <path d="M55 15H62" stroke="#FF4D4D" stroke-width="3"/>
  <path d="M55 21.5H62" stroke="#FF4D4D" stroke-width="3"/>
  <path d="M55 28H62" stroke="#FF4D4D" stroke-width="3"/>
  <path d="M65 8.5H72" stroke="#FF4D4D" stroke-width="3"/>
  <path d="M65 15H72" stroke="#FF4D4D" stroke-width="3"/>
  <path d="M65 21.5H72" stroke="#FF4D4D" stroke-width="3"/>
  <path d="M65 28H72" stroke="#FF4D4D" stroke-width="3"/>
  <path d="M75 8.5H82" stroke="#FF4D4D" stroke-width="3"/>
  <path d="M75 15H82" stroke="#FF4D4D" stroke-width="3"/>
  <path d="M75 21.5H82" stroke="#FF4D4D" stroke-width="3"/>
  <path d="M75 28H82" stroke="#FF4D4D" stroke-width="3"/>
  <path d="M85 8.5H92" stroke="#FF4D4D" stroke-width="3"/>
  <path d="M85 15H92" stroke="#FF4D4D" stroke-width="3"/>
  <path d="M85 21.5H92" stroke="#FF4D4D" stroke-width="3"/>
  <path d="M85 28H92" stroke="#FF4D4D" stroke-width="3"/>
  <path d="M95 8.5H102" stroke="#FF4D4D" stroke-width="3"/>
  <path d="M95 15H102" stroke="#FF4D4D" stroke-width="3"/>
  <path d="M95 21.5H102" stroke="#FF4D4D" stroke-width="3"/>
  <path d="M95 28H102" stroke="#FF4D4D" stroke-width="3"/>
  <path d="M105 8.5H112" stroke="#FF4D4D" stroke-width="3"/>
  <path d="M105 15H112" stroke="#FF4D4D" stroke-width="3"/>
  <path d="M105 21.5H112" stroke="#FF4D4D" stroke-width="3"/>
  <path d="M105 28H112" stroke="#FF4D4D" stroke-width="3"/>
  <path d="M115 8.5H118" stroke="#FF4D4D" stroke-width="3"/>
  <path d="M115 15H118" stroke="#FF4D4D" stroke-width="3"/>
  <path d="M115 21.5H118" stroke="#FF4D4D" stroke-width="3"/>
  <path d="M115 28H118" stroke="#FF4D4D" stroke-width="3"/>
</svg> 